<svg xmlns="http://www.w3.org/2000/svg" xmlns:xlink="http://www.w3.org/1999/xlink" xmlns:lucid="lucid" width="1360" height="1760"><g transform="translate(0 0)" lucid:page-tab-id=".Q4MUjXso07N"><path d="M0 0h1360v1760H0z" fill="#fff"/><path d="M402.78 265a5 5 0 0 1 5-5h543.54a5 5 0 0 1 5 5v730a5 5 0 0 1-5 5H407.78a5 5 0 0 1-5-5z" stroke="#333" fill-opacity="0"/><use xlink:href="#a" transform="matrix(1,0,0,1,410.7771404371331,268) translate(227.91389973958331 19.014973958333332)"/><path d="M260.25 519.95v-.2A19.75 19.75 0 0 1 280 500a19.75 19.75 0 0 1 19.75 19.75A19.75 19.75 0 0 1 280 539.5a19.75 19.75 0 0 1-19.75-19.75v-.2" stroke="#333" fill="#fff"/><path d="M240 505a5 5 0 0 1 5-5h70a5 5 0 0 1 5 5v148a5 5 0 0 1-5 5h-70a5 5 0 0 1-5-5z" fill="none"/><path d="M280 539.5v55.3l40 63.2m-40-63.2L240 658m0-98.75h80" stroke="#333" fill="none"/><use xlink:href="#b" transform="matrix(1,0,0,1,160,658) translate(92.41888020833333 18.011979166666666)"/><path d="M1040.25 519.95v-.2A19.75 19.75 0 0 1 1060 500a19.75 19.75 0 0 1 19.75 19.75A19.75 19.75 0 0 1 1060 539.5a19.75 19.75 0 0 1-19.75-19.75v-.2" stroke="#333" fill="#fff"/><path d="M1020 505a5 5 0 0 1 5-5h70a5 5 0 0 1 5 5v148a5 5 0 0 1-5 5h-70a5 5 0 0 1-5-5z" fill="none"/><path d="M1060 539.5v55.3l40 63.2m-40-63.2l-40 63.2m0-98.75h80" stroke="#333" fill="none"/><use xlink:href="#c" transform="matrix(1,0,0,1,940,658) translate(74.27096354166667 18.011979166666666)"/><path d="M580 920c0 33.14-35.82 60-80 60s-80-26.86-80-60 35.82-60 80-60 80 26.86 80 60z" stroke="#fff" fill="#3278cc"/><use xlink:href="#d" transform="matrix(1,0,0,1,444,884) translate(0.9790364583333258 42.01432291666667)"/><use xlink:href="#e" transform="matrix(1,0,0,1,444,884) translate(54.09075520833333 42.01432291666667)"/><path d="M940 800c0 33.14-35.82 60-80 60s-80-26.86-80-60 35.82-60 80-60 80 26.86 80 60z" stroke="#fff" fill="#3278cc"/><use xlink:href="#f" transform="matrix(1,0,0,1,804,764) translate(10.807812499999997 42.01432291666667)"/><use xlink:href="#g" transform="matrix(1,0,0,1,804,764) translate(67.16484375 42.01432291666667)"/><path d="M281 590.08l198 29.84M281 590.08l-3.47-.53" stroke="#333" fill="none"/><path d="M479.5 619.52v.95l-.58-.1.14-.93z" stroke="#333" stroke-width=".05" fill="#333"/><path d="M820 920c0 33.14-35.82 60-80 60s-80-26.86-80-60 35.82-60 80-60 80 26.86 80 60z" stroke="#fff" fill="#3278cc"/><use xlink:href="#h" transform="matrix(1,0,0,1,684,884) translate(22.759765625 32.01197916666666)"/><use xlink:href="#i" transform="matrix(1,0,0,1,684,884) translate(9.43138020833333 52.016666666666666)"/><path d="M1059 590.04l-418 29.92M1059 590.04l3.5-.25" stroke="#333" fill="none"/><path d="M641.04 620.44l-.55.04v-.95l.48-.03z" stroke="#333" stroke-width=".05" fill="#333"/><path d="M860 739v-6.5a12 12 0 0 0-12-12H572a12 12 0 0 1-12-12v-11.62" stroke="#333" fill="none"/><path d="M860.48 739.5h-.95v-.5h.96z" stroke="#333" stroke-width=".05" fill="#333"/><path d="M560 682.12l4.63 14.26h-9.26z" stroke="#333" fill="#333"/><path d="M253.15 79a8 8 0 0 1 8-8h836.75a8 8 0 0 1 8 8v25.16a8 8 0 0 1-8 8H261.15a8 8 0 0 1-8-8z" stroke="#000" stroke-opacity="0" stroke-width="2" fill="#fff" fill-opacity="0"/><use xlink:href="#j" transform="matrix(1,0,0,1,273.14655278534315,70.99999999994924) translate(260.80484700520833 31.211126302083333)"/><use xlink:href="#k" transform="matrix(1,0,0,1,273.14655278534315,70.99999999994924) translate(380.535283203125 31.211126302083333)"/><use xlink:href="#l" transform="matrix(1,0,0,1,273.14655278534315,70.99999999994924) translate(416.2103092447917 31.211126302083333)"/><use xlink:href="#m" transform="matrix(1,0,0,1,273.14655278534315,70.99999999994924) translate(479.34415039062503 31.211126302083333)"/><use xlink:href="#n" transform="matrix(1,0,0,1,273.14655278534315,70.99999999994924) translate(515.0191764322917 31.211126302083333)"/><path d="M490.17 110.8h388.3M490.2 110.8h-1.03M878.45 110.8h1.02" stroke="#a9afb8" stroke-width="2" fill="none"/><path d="M253.15 120.16a8 8 0 0 1 8-8h837.7a8 8 0 0 1 8 8V123a8 8 0 0 1-8 8h-837.7a8 8 0 0 1-8-8z" stroke="#000" stroke-opacity="0" stroke-width="2" fill="#fff" fill-opacity="0"/><use xlink:href="#o" transform="matrix(1,0,0,1,273.1465527853436,112.15522395684805) translate(259.53508707682295 16.461006944444446)"/><use xlink:href="#p" transform="matrix(1,0,0,1,273.1465527853436,112.15522395684805) translate(308.0950767686632 16.461006944444446)"/><use xlink:href="#q" transform="matrix(1,0,0,1,273.1465527853436,112.15522395684805) translate(356.08548855251735 16.461006944444446)"/><use xlink:href="#r" transform="matrix(1,0,0,1,273.1465527853436,112.15522395684805) translate(432.3741978624132 16.461006944444446)"/><use xlink:href="#s" transform="matrix(1,0,0,1,273.1465527853436,112.15522395684805) translate(445.1063479275174 16.461006944444446)"/><use xlink:href="#t" transform="matrix(1,0,0,1,273.1465527853436,112.15522395684805) translate(503.51586778428816 16.461006944444446)"/><use xlink:href="#u" transform="matrix(1,0,0,1,273.1465527853436,112.15522395684805) translate(526.1114401584201 16.461006944444446)"/><path d="M500 843.12V831.5a12 12 0 0 0-12-12h-26a12 12 0 0 1-12-12V702a12 12 0 0 0-12-12H332.5a12 12 0 0 1-12-12v-76.97c-2.76 0-5-2.24-5-5s2.24-5 5-5v-.5a.52.52 0 0 0-.5-.53h-39" stroke="#333" fill="none"/><path d="M500 857.88l-4.63-14.26h9.26z" stroke="#333" fill="#333"/><path d="M281 590h-3.5M281 590h39a.52.52 0 0 1 .5.5v.53c-2.76 0-5 2.24-5 5s2.24 5 5 5V678a12 12 0 0 0 12 12H438a12 12 0 0 1 12 12v46a12 12 0 0 0 12 12h265.5a12 12 0 0 1 12 12v16a12 12 0 0 0 12 12H779M281 590h-3.5" stroke="#333" fill="none"/><path d="M779.5 800V800.47h-.5v-.96h.5z" stroke="#333" stroke-width=".05" fill="#333"/><path d="M680 708a8 8 0 0 1 8-8h64a8 8 0 0 1 8 8v4a8 8 0 0 1-8 8h-64a8 8 0 0 1-8-8z" fill="none"/><use xlink:href="#v" transform="matrix(1,0,0,1,680,700) translate(25.61669921875 17.4375)"/><path d="M281 590h39a.52.52 0 0 1 .5.5v.53c-2.76 0-5 2.24-5 5s2.24 5 5 5V678a12 12 0 0 0 12 12H438a12 12 0 0 1 12 12v86a12 12 0 0 0 12 12h145.5a12 12 0 0 1 12 12v96a12 12 0 0 0 12 12H659M281 590h-3.5" stroke="#333" fill="none"/><path d="M659.5 920V920.47h-.5v-.96h.5z" stroke="#333" stroke-width=".05" fill="#333"/><path d="M640 620c0 33.14-35.82 60-80 60s-80-26.86-80-60 35.82-60 80-60 80 26.86 80 60z" stroke="#fff" fill="#3278cc"/><use xlink:href="#w" transform="matrix(1,0,0,1,504,584) translate(34.03763020833333 32.01197916666666)"/><use xlink:href="#x" transform="matrix(1,0,0,1,504,584) translate(18.92916666666666 52.016666666666666)"/><path d="M759.52 360c0 33.14-35.82 60-80 60s-80-26.86-80-60 35.82-60 80-60 80 26.86 80 60z" stroke="#fff" fill="#3278cc"/><use xlink:href="#y" transform="matrix(1,0,0,1,623.5213070194006,324) translate(3.36861979166666 42.01432291666667)"/><use xlink:href="#z" transform="matrix(1,0,0,1,623.5213070194006,324) translate(56.09283854166666 42.01432291666667)"/><path d="M1059 590H921.76a12 12 0 0 1-12-12V372a12 12 0 0 0-12-12H760.52M1059 590h3.5" stroke="#333" fill="none"/><path d="M760.53 360.48H760l.02-.47V359.53h.5z" stroke="#333" stroke-width=".05" fill="#333"/><path d="M760 500c0 33.14-35.82 60-80 60s-80-26.86-80-60 35.82-60 80-60 80 26.86 80 60z" stroke="#fff" fill="#3278cc"/><use xlink:href="#A" transform="matrix(1,0,0,1,624.0000000000002,464.0010366745166) translate(11.607031249999991 42.01432291666667)"/><path d="M1059 590H902a12 12 0 0 1-12-12v-66a12 12 0 0 0-12-12H761M1059 590h3.5" stroke="#333" fill="none"/><path d="M761 500.48h-.5v-.94h.5z" stroke="#333" stroke-width=".05" fill="#333"/><path d="M281 590h147a12 12 0 0 0 12-12v-66a12 12 0 0 1 12-12h147M281 590h-3.5" stroke="#333" fill="none"/><path d="M599.5 500V500.47h-.5v-.95h.5z" stroke="#333" stroke-width=".05" fill="#333"/><path d="M280 596.23V759.5M280 759.5v.5M281 590h146.76a12 12 0 0 0 12-12V372a12 12 0 0 1 12-12h146.76M281 590h-3.5" stroke="#333" fill="none"/><path d="M599.02 360V360.47h-.5v-.96h.52z" stroke="#333" stroke-width=".05" fill="#333"/><path d="M680 439v-2.12" stroke="#333" fill="none"/><path d="M680.48 439.52l-.47-.02h-.48v-.5h.96z" stroke="#333" stroke-width=".05" fill="#333"/><path d="M680 422.12l4.63 14.26h-9.26z" stroke="#333" fill="#333"/><defs><path fill="#333" d="M605 22C247 22 24-145 68-462h297c-14 151 94 226 259 226 162 0 283-76 302-190 17-102-68-149-225-189l-158-41c-235-59-372-183-336-404 43-269 290-450 614-450 328 0 536 182 498 445h-294c8-119-76-188-229-188-156 0-256 72-273 172-30 154 195 185 336 221 239 61 415 185 374 436-45 271-266 446-628 446" id="B"/><path fill="#333" d="M36 0l185-1118h300L336 0H36zm359-1264c-91 0-153-69-139-154 14-84 99-154 190-154 89 0 153 67 139 154-14 86-100 154-190 154" id="C"/><path fill="#333" d="M490 22C212 20 43-104 37-315l281-29c11 104 65 146 186 146 109 0 214-47 222-128 5-51-29-84-119-104l-186-40c-195-42-289-149-277-303 14-232 242-359 510-359 274 2 415 119 430 308l-267 27c-11-76-56-120-162-120-98 0-203 45-211 128-6 50 24 83 118 104l194 40c196 41 291 138 279 289-15 238-265 378-545 378" id="D"/><path fill="#333" d="M776-1118l-37 229H530l-93 562c-12 72 14 104 85 104 23 0 74-7 97-13l5 225C555 8 488 16 426 16 201 16 99-97 132-301l98-588H76l37-229h155l44-266h300l-44 266h208" id="E"/><path fill="#333" d="M552 24C254 24 71-146 71-432c0-377 264-705 643-705 236 0 413 123 413 326 0 251-270 329-766 342-10 155 35 265 213 267 113 0 207-50 245-134l269 36C1015-105 814 24 552 24zM392-650c368-7 456-43 456-146 0-71-63-115-165-115-165 0-251 126-291 261" id="F"/><path fill="#333" d="M35 0l186-1118h278l-23 203c87-158 215-220 340-220 150 0 232 87 258 250 89-176 240-250 390-250 212 0 348 148 307 391L1648 0h-301l118-707c21-127-40-177-131-177-124 0-216 90-235 206L986 0H696l119-715c18-110-37-169-130-169-113 0-217 83-240 218L335 0H35" id="G"/><path fill="#333" d="M441 19C184 19 19-186 81-558c63-382 303-574 550-574 189 0 259 113 285 202h10l31-188h299L1071 0H776l29-179h-14C733-87 623 19 441 19zm133-241c154 0 263-135 296-336 34-204-31-334-185-334-159 0-264 139-296 334-33 197 29 336 185 336" id="H"/><g id="a"><use transform="matrix(0.010091145833333334,0,0,0.010091145833333334,0,0)" xlink:href="#B"/><use transform="matrix(0.010091145833333334,0,0,0.010091145833333334,13.522135416666668,0)" xlink:href="#C"/><use transform="matrix(0.010091145833333334,0,0,0.010091145833333334,19.1328125,0)" xlink:href="#D"/><use transform="matrix(0.010091145833333334,0,0,0.010091145833333334,30.697265625,0)" xlink:href="#E"/><use transform="matrix(0.010091145833333334,0,0,0.010091145833333334,38.083984375,0)" xlink:href="#F"/><use transform="matrix(0.010091145833333334,0,0,0.010091145833333334,50.27408854166667,0)" xlink:href="#G"/><use transform="matrix(0.010091145833333334,0,0,0.010091145833333334,69.13444010416667,0)" xlink:href="#H"/></g><path fill="#333" d="M-41 0l788-1490h220L1268 0h-192l-80-416H383L169 0H-41zm509-582h497c-56-293-77-375-126-756-162 359-224 468-371 756" id="I"/><path fill="#333" d="M585 0H87l247-1490h460c436 0 670 281 593 744C1309-277 1035 0 585 0zM305-168h262c366 0 577-221 636-580s-82-574-426-574H496" id="J"/><path fill="#333" d="M87 0l247-1490h270l211 940c16 74 39 220 54 339 57-123 125-267 165-339l519-940h271L1577 0h-187c75-441 134-849 220-1287C1371-790 1163-459 914 0H749C649-458 553-779 473-1282 408-826 339-440 268 0H87" id="K"/><path fill="#333" d="M524-1490L277 0H87l247-1490h190" id="L"/><path fill="#333" d="M87 0l247-1490h218l448 953c25 54 80 176 129 327 11-149 33-280 47-366l151-914h190L1270 0h-219C841-464 670-765 473-1275 414-753 352-475 278 0H87" id="M"/><g id="b"><use transform="matrix(0.008072916666666667,0,0,0.008072916666666667,0,0)" xlink:href="#I"/><use transform="matrix(0.008072916666666667,0,0,0.008072916666666667,11.407031250000001,0)" xlink:href="#J"/><use transform="matrix(0.008072916666666667,0,0,0.008072916666666667,23.33072916666667,0)" xlink:href="#K"/><use transform="matrix(0.008072916666666667,0,0,0.008072916666666667,38.26562500000001,0)" xlink:href="#L"/><use transform="matrix(0.008072916666666667,0,0,0.008072916666666667,42.70572916666667,0)" xlink:href="#M"/></g><path fill="#333" d="M575 26C254 26 62-139 87-390h195c-13 168 129 246 305 246 202 0 370-106 400-265 38-202-254-238-427-293-212-68-349-179-316-387 40-252 276-421 566-421 289 0 487 168 458 396h-185c7-144-113-228-291-228-194 0-337 102-361 240-27 156 137 212 244 243l142 41c149 43 400 132 354 412-40 244-251 432-596 432" id="N"/><path fill="#333" d="M226-1323l28-167h1126l-28 167H885L666 0H476l219-1323H226" id="O"/><g id="c"><use transform="matrix(0.008072916666666667,0,0,0.008072916666666667,0,0)" xlink:href="#I"/><use transform="matrix(0.008072916666666667,0,0,0.008072916666666667,11.407031250000001,0)" xlink:href="#N"/><use transform="matrix(0.008072916666666667,0,0,0.008072916666666667,21.99869791666667,0)" xlink:href="#N"/><use transform="matrix(0.008072916666666667,0,0,0.008072916666666667,32.59036458333334,0)" xlink:href="#L"/><use transform="matrix(0.008072916666666667,0,0,0.008072916666666667,37.030468750000004,0)" xlink:href="#N"/><use transform="matrix(0.008072916666666667,0,0,0.008072916666666667,47.62213541666667,0)" xlink:href="#O"/><use transform="matrix(0.008072916666666667,0,0,0.008072916666666667,56.90598958333334,0)" xlink:href="#I"/><use transform="matrix(0.008072916666666667,0,0,0.008072916666666667,68.31302083333334,0)" xlink:href="#M"/><use transform="matrix(0.008072916666666667,0,0,0.008072916666666667,80.76953125,0)" xlink:href="#O"/></g><path fill="#fff" d="M698 20c-339 0-559-226-559-600 0-470 305-930 790-930 306 0 529 181 531 489h-190c-8-202-157-313-348-313-373 0-599 380-599 749 0 281 158 429 382 429 202 0 399-111 474-313h191C1267-166 997 20 698 20" id="P"/><path fill="#fff" d="M481 24C202 24 45-202 104-557s293-575 571-575c216 0 263 132 291 193h15l29-179h181L1006 0H831l28-173h-21C788-107 693 24 481 24zm56-161c204 0 342-174 383-422s-41-412-245-412c-215 0-350 183-388 412-39 235 39 422 250 422" id="Q"/><path fill="#fff" d="M66 0l185-1118h174l-28 172h12c78-136 219-209 411-185l-30 181c-211-47-398 67-428 250L246 0H66" id="R"/><path fill="#fff" d="M456 442C197 442 73 327 25 209l155-84c33 60 86 160 280 160 184 0 332-89 363-272l37-218-16 4C793-134 707-18 498-18 260-18 96-170 96-443c0-341 216-689 568-689 222 0 274 139 301 198l21-5 30-179h175L999 35c-48 288-275 407-543 407zm75-620c274 0 401-267 401-512 0-170-80-281-247-281-260 0-408 269-408 518 0 167 83 275 254 275" id="S"/><g id="d"><use transform="matrix(0.008072916666666667,0,0,0.008072916666666667,0,0)" xlink:href="#P"/><use transform="matrix(0.008072916666666667,0,0,0.008072916666666667,12.069010416666668,0)" xlink:href="#Q"/><use transform="matrix(0.008072916666666667,0,0,0.008072916666666667,22.21666666666667,0)" xlink:href="#R"/><use transform="matrix(0.008072916666666667,0,0,0.008072916666666667,28.17447916666667,0)" xlink:href="#S"/><use transform="matrix(0.008072916666666667,0,0,0.008072916666666667,38.314062500000006,0)" xlink:href="#Q"/></g><path fill="#fff" d="M87 0l247-1490h270l211 940c16 74 39 220 54 339 57-123 125-267 165-339l519-940h271L1577 0h-187c75-441 134-849 220-1287C1371-790 1163-459 914 0H749C649-458 553-779 473-1282 408-826 339-440 268 0H87" id="T"/><path fill="#fff" d="M451 24C217 22 71-78 61-277l174-29c11 123 90 172 219 172 161 0 280-83 297-181 11-71-30-117-135-143l-179-44c-195-48-280-153-253-316 31-186 223-314 455-314 233 4 337 107 366 275l-165 30c-18-80-65-152-204-152-138 0-256 75-272 174-13 77 32 118 158 149l162 40c195 48 278 154 252 313C904-113 708 24 451 24" id="U"/><path fill="#fff" d="M66 0l185-1118h180L246 0H66zm307-1301c-71 0-117-55-106-119s74-119 145-119c65 0 117 50 106 118s-78 120-145 120" id="V"/><path fill="#fff" d="M389 0L147-1118h188c55 314 135 617 168 951 141-329 323-637 482-951h205L578 0H389" id="W"/><g id="e"><use transform="matrix(0.008072916666666667,0,0,0.008072916666666667,0,0)" xlink:href="#T"/><use transform="matrix(0.008072916666666667,0,0,0.008072916666666667,14.934895833333336,0)" xlink:href="#Q"/><use transform="matrix(0.008072916666666667,0,0,0.008072916666666667,25.082552083333336,0)" xlink:href="#U"/><use transform="matrix(0.008072916666666667,0,0,0.008072916666666667,33.80130208333334,0)" xlink:href="#V"/><use transform="matrix(0.008072916666666667,0,0,0.008072916666666667,37.81354166666667,0)" xlink:href="#W"/><use transform="matrix(0.008072916666666667,0,0,0.008072916666666667,46.78255208333334,0)" xlink:href="#Q"/></g><path fill="#fff" d="M-41 0l788-1490h220L1268 0h-192l-80-416H383L169 0H-41zm509-582h497c-56-293-77-375-126-756-162 359-224 468-371 756" id="X"/><path fill="#fff" d="M356-664L245 0H65l186-1118h173l-32 197c96-152 219-211 366-211 232 0 366 145 319 428L960 0H779l117-701c29-174-48-269-198-269-165 0-310 115-342 306zm506-649c-99 0-179-83-229-83-37 0-59 42-67 79H440c25-123 92-208 197-208 104 0 160 85 227 85 34 0 53-25 69-81h123c-25 129-98 208-194 208" id="Y"/><path fill="#fff" d="M492 24C248 24 94-147 94-425c0-352 212-707 569-707 222 0 274 136 303 198h12l92-556h181L1004 0H829l30-173h-19C792-103 700 24 492 24zm32-161c268 0 407-295 407-549 0-175-80-285-247-285-266 0-408 283-408 536 0 174 79 298 248 298" id="Z"/><g id="f"><use transform="matrix(0.008072916666666667,0,0,0.008072916666666667,0,0)" xlink:href="#X"/><use transform="matrix(0.008072916666666667,0,0,0.008072916666666667,11.407031250000001,0)" xlink:href="#Y"/><use transform="matrix(0.008072916666666667,0,0,0.008072916666666667,21.183333333333337,0)" xlink:href="#Q"/><use transform="matrix(0.008072916666666667,0,0,0.008072916666666667,31.330989583333338,0)" xlink:href="#Z"/><use transform="matrix(0.008072916666666667,0,0,0.008072916666666667,41.462500000000006,0)" xlink:href="#V"/><use transform="matrix(0.008072916666666667,0,0,0.008072916666666667,45.47473958333334,0)" xlink:href="#R"/></g><path fill="#fff" d="M492-1490L245 0H65l247-1490h180" id="aa"/><path fill="#fff" d="M592 24c-216 0-276-130-305-197h-18L239 0H65l247-1490h180l-92 551h15c51-63 134-193 344-193 246 0 401 170 401 447 0 348-211 709-568 709zm-24-161c267 0 411-296 411-543 0-170-78-291-250-291-269 0-405 284-405 542 0 177 81 292 244 292" id="ab"/><path fill="#fff" d="M528 24C258 24 94-156 94-433c0-355 229-699 603-699 270 0 436 178 436 458 0 359-234 698-605 698zm4-161c275 0 420-287 420-533 0-170-77-301-260-301-271 0-418 288-418 536 0 168 77 298 258 298" id="ac"/><g id="g"><use transform="matrix(0.008072916666666667,0,0,0.008072916666666667,0,0)" xlink:href="#aa"/><use transform="matrix(0.008072916666666667,0,0,0.008072916666666667,4.004166666666667,0)" xlink:href="#V"/><use transform="matrix(0.008072916666666667,0,0,0.008072916666666667,8.016406250000001,0)" xlink:href="#ab"/><use transform="matrix(0.008072916666666667,0,0,0.008072916666666667,18.147916666666667,0)" xlink:href="#R"/><use transform="matrix(0.008072916666666667,0,0,0.008072916666666667,24.10572916666667,0)" xlink:href="#ac"/></g><path fill="#fff" d="M180 0v-1490h908v168H370v486h669v168H370v500h727V0H180" id="ad"/><path fill="#fff" d="M65 0l393-574-370-544h210c88 136 192 297 267 435 67-142 176-302 264-435h206L661-564 1053 0H844c-94-144-206-310-287-458C484-308 366-142 273 0H65" id="ae"/><path fill="#fff" d="M158 418v-1536h174v179h20c37-59 106-193 324-193 279 0 474 222 474 576 0 356-194 580-473 580-213 0-288-135-325-197h-14v591H158zm492-555c209 0 317-186 317-421 0-232-105-413-317-413-206 0-314 166-314 413 0 249 111 421 314 421" id="af"/><path fill="#fff" d="M613 24c-304 0-509-231-509-576 0-350 205-580 509-580 305 0 511 230 511 580 0 345-206 576-511 576zm0-161c226 0 329-195 329-415 0-222-103-419-329-419-223 0-326 196-326 419 0 220 103 415 326 415" id="ag"/><path fill="#fff" d="M158 0v-1118h174v172h12c41-113 157-188 290-188 26 0 70 2 91 3v181c-11-2-60-10-108-10-161 0-279 109-279 260V0H158" id="ah"/><path fill="#fff" d="M598-1118v154H368v674c0 100 37 144 132 144 23 0 62-6 92-12L629-6c-37 13-88 20-134 20-193 0-307-107-307-290v-688H20v-154h168v-266h180v266h230" id="ai"/><path fill="#fff" d="M471 26C259 26 90-98 90-318c0-256 228-303 435-329 202-27 287-16 287-108 0-139-79-219-234-219-161 0-248 86-283 164l-173-57c86-203 278-265 451-265 150 0 419 46 419 395V0H815v-152h-12C765-73 660 26 471 26zm31-159c199 0 310-134 310-271v-155c-30 35-226 55-295 64-131 17-246 59-246 186 0 116 97 176 231 176" id="aj"/><g id="h"><use transform="matrix(0.008072916666666667,0,0,0.008072916666666667,0,0)" xlink:href="#ad"/><use transform="matrix(0.008072916666666667,0,0,0.008072916666666667,9.937760416666668,0)" xlink:href="#ae"/><use transform="matrix(0.008072916666666667,0,0,0.008072916666666667,18.96328125,0)" xlink:href="#af"/><use transform="matrix(0.008072916666666667,0,0,0.008072916666666667,29.086718750000003,0)" xlink:href="#ag"/><use transform="matrix(0.008072916666666667,0,0,0.008072916666666667,39.00026041666667,0)" xlink:href="#ah"/><use transform="matrix(0.008072916666666667,0,0,0.008072916666666667,45.4828125,0)" xlink:href="#ai"/><use transform="matrix(0.008072916666666667,0,0,0.008072916666666667,50.97239583333333,0)" xlink:href="#aj"/><use transform="matrix(0.008072916666666667,0,0,0.008072916666666667,60.256249999999994,0)" xlink:href="#ah"/></g><path fill="#fff" d="M370-1490V0H180v-1490h190" id="ak"/><path fill="#fff" d="M338-670V0H158v-1118h173l1 207c72-158 192-221 342-221 226 0 378 139 378 422V0H872v-695c0-172-96-275-252-275-161 0-282 109-282 300" id="al"/><path fill="#fff" d="M678-1118v154H420V0H240v-964H20v-154h220v-149c0-194 155-293 318-293 85 0 141 18 168 30l-50 154c-19-6-47-17-97-17-111 0-159 58-159 166v109h258" id="am"/><path fill="#fff" d="M158 0v-1118h175l1 205c55-151 181-225 313-225 147 0 245 90 285 228 53-141 190-228 352-228 194 0 352 125 352 384V0h-181v-749c0-161-105-225-225-225-151 0-243 103-243 244V0H807v-767c0-124-93-207-219-207-131 0-250 92-250 270V0H158" id="an"/><path fill="#fff" d="M613 24c-304 0-509-231-509-576 0-350 205-580 509-580 216 0 392 114 453 309l-173 49c-33-115-133-197-280-197-223 0-326 196-326 419 0 220 103 415 326 415 150 0 252-85 285-206l172 49C1010-95 832 24 613 24" id="ao"/><path fill="#fff" d="M158 0v-1118h180V0H158zm91-1301c-68 0-125-53-125-119s57-119 125-119c69 0 126 53 126 119s-57 119-126 119" id="ap"/><path fill="#fff" d="M613 24c-304 0-509-231-509-576 0-350 205-580 509-580 305 0 511 230 511 580 0 345-206 576-511 576zm0-161c226 0 329-195 329-415 0-222-103-419-329-419-223 0-326 196-326 419 0 220 103 415 326 415zm-79-1127l140-294h201l-194 294H534" id="aq"/><g id="i"><use transform="matrix(0.008072916666666667,0,0,0.008072916666666667,0,0)" xlink:href="#ak"/><use transform="matrix(0.008072916666666667,0,0,0.008072916666666667,4.440104166666667,0)" xlink:href="#al"/><use transform="matrix(0.008072916666666667,0,0,0.008072916666666667,14.208333333333337,0)" xlink:href="#am"/><use transform="matrix(0.008072916666666667,0,0,0.008072916666666667,19.84322916666667,0)" xlink:href="#ag"/><use transform="matrix(0.008072916666666667,0,0,0.008072916666666667,29.756770833333338,0)" xlink:href="#ah"/><use transform="matrix(0.008072916666666667,0,0,0.008072916666666667,36.23932291666667,0)" xlink:href="#an"/><use transform="matrix(0.008072916666666667,0,0,0.008072916666666667,50.722135416666674,0)" xlink:href="#aj"/><use transform="matrix(0.008072916666666667,0,0,0.008072916666666667,60.005989583333346,0)" xlink:href="#ao"/><use transform="matrix(0.008072916666666667,0,0,0.008072916666666667,69.45130208333335,0)" xlink:href="#ap"/><use transform="matrix(0.008072916666666667,0,0,0.008072916666666667,73.45546875000001,0)" xlink:href="#aq"/><use transform="matrix(0.008072916666666667,0,0,0.008072916666666667,83.36901041666667,0)" xlink:href="#al"/></g><path fill="#a9afb8" d="M659 0H135v-1490h529c448 0 721 280 721 744 0 466-273 746-726 746zM440-263h204c287 0 437-148 437-483 0-333-150-481-435-481H440v964" id="ar"/><path fill="#a9afb8" d="M128 0v-1118h300V0H128zm150-1264c-91 0-165-68-165-154 0-85 74-154 165-154 90 0 165 69 165 154 0 86-75 154-165 154" id="as"/><path fill="#a9afb8" d="M440 22C227 22 68-92 68-313c0-250 202-322 422-343 195-21 271-24 271-105 0-95-63-149-175-149-116 0-187 57-211 129l-275-46c57-194 237-305 487-305 240 0 474 108 474 379V0H777v-155h-10C713-51 605 22 440 22zm85-211c140 0 238-93 238-211v-121c-37 26-156 42-222 51-111 16-185 59-185 149 0 87 70 132 169 132" id="at"/><path fill="#a9afb8" d="M625 442c-280 0-454-114-503-274l258-72c28 63 97 128 243 128 153 0 246-69 246-216v-206h-23C805-108 717-16 536-16 284-16 81-191 81-561c0-378 208-571 456-571 188 0 280 113 321 202h13v-188h295V-9c0 303-226 451-541 451zm5-686c153 0 240-119 240-319 0-198-86-329-240-329-158 0-241 137-241 329 0 195 85 319 241 319" id="au"/><path fill="#a9afb8" d="M128 0v-1118h290v195h12c54-169 184-238 367-200v268c-27-8-86-15-130-15-138 0-239 95-239 234V0H128" id="av"/><path fill="#a9afb8" d="M128 0v-1118h278l12 217c60-163 185-234 319-234 143 0 236 81 288 251 63-172 205-251 359-251 205 0 357 138 357 381V0h-301v-697c0-126-76-187-177-187-114 0-184 79-184 196V0H789v-705c0-109-72-179-174-179-106 0-187 74-187 208V0H128" id="aw"/><g id="j"><use transform="matrix(0.011907552083333333,0,0,0.011907552083333333,0,0)" xlink:href="#ar"/><use transform="matrix(0.011907552083333333,0,0,0.011907552083333333,17.61126953125,0)" xlink:href="#as"/><use transform="matrix(0.011907552083333333,0,0,0.011907552083333333,24.219960937499998,0)" xlink:href="#at"/><use transform="matrix(0.011907552083333333,0,0,0.011907552083333333,38.37804036458333,0)" xlink:href="#au"/><use transform="matrix(0.011907552083333333,0,0,0.011907552083333333,53.78641276041665,0)" xlink:href="#av"/><use transform="matrix(0.011907552083333333,0,0,0.011907552083333333,63.38389973958332,0)" xlink:href="#at"/><use transform="matrix(0.011907552083333333,0,0,0.011907552083333333,77.54197916666666,0)" xlink:href="#aw"/><use transform="matrix(0.011907552083333333,0,0,0.011907552083333333,99.79719401041666,0)" xlink:href="#at"/></g><path fill="#a9afb8" d="M537 19C279 19 81-185 81-557c0-382 206-575 454-575 190 0 278 113 318 202h10v-560h300V0H868v-179h-15C812-89 719 19 537 19zm92-241c153 0 240-134 240-336 0-203-86-334-240-334-158 0-240 138-240 334 0 197 84 336 240 336" id="ax"/><path fill="#a9afb8" d="M633 22C291 22 81-200 81-553c0-345 210-579 537-579 292 0 525 185 525 567v84H378c7 183 109 277 260 277 105 0 184-46 216-132l272 51C1071-99 893 22 633 22zM380-669h474c-15-146-94-237-233-237-143 0-229 99-241 237" id="ay"/><g id="k"><use transform="matrix(0.011907552083333333,0,0,0.011907552083333333,0,0)" xlink:href="#ax"/><use transform="matrix(0.011907552083333333,0,0,0.011907552083333333,15.372649739583334,0)" xlink:href="#ay"/></g><path fill="#a9afb8" d="M628 22C291 22 81-210 81-554c0-346 210-578 547-578 265 0 455 142 497 372l-279 52c-25-116-99-188-215-188-160 0-244 139-244 341 0 200 84 341 244 341 116 0 193-74 217-195l279 51C1085-123 896 22 628 22" id="az"/><path fill="#a9afb8" d="M572 22C302 22 117-98 78-306l279-48c29 105 101 156 224 156 114 0 185-48 185-115 0-118-228-130-337-155-215-49-322-150-322-317 0-215 187-347 470-347 265 0 424 116 466 298l-266 47c-24-76-87-130-196-130-98 0-174 46-174 113 0 56 38 95 144 117l201 40c216 44 320 143 320 302 0 220-207 367-500 367" id="aA"/><path fill="#a9afb8" d="M628 22C291 22 81-210 81-554c0-346 210-578 547-578 336 0 547 232 547 578 0 344-211 576-547 576zm0-236c160 0 242-146 242-341 0-197-82-341-242-341S387-753 387-555c0 195 81 341 241 341" id="aB"/><g id="l"><use transform="matrix(0.011907552083333333,0,0,0.011907552083333333,0,0)" xlink:href="#az"/><use transform="matrix(0.011907552083333333,0,0,0.011907552083333333,14.586751302083334,0)" xlink:href="#at"/><use transform="matrix(0.011907552083333333,0,0,0.011907552083333333,28.744830729166665,0)" xlink:href="#aA"/><use transform="matrix(0.011907552083333333,0,0,0.011907552083333333,42.40279296875,0)" xlink:href="#aB"/></g><g id="m"><use transform="matrix(0.011907552083333333,0,0,0.011907552083333333,0,0)" xlink:href="#ax"/><use transform="matrix(0.011907552083333333,0,0,0.011907552083333333,15.372649739583334,0)" xlink:href="#ay"/></g><path fill="#a9afb8" d="M513 14c-232 0-385-159-385-421v-711h300v659c0 139 76 222 202 222 127 0 217-86 217-234v-647h301V0H864l-4-232C797-74 683 14 513 14" id="aC"/><g id="n"><use transform="matrix(0.011907552083333333,0,0,0.011907552083333333,0,0)" xlink:href="#aC"/><use transform="matrix(0.011907552083333333,0,0,0.011907552083333333,15.18212890625,0)" xlink:href="#aA"/><use transform="matrix(0.011907552083333333,0,0,0.011907552083333333,28.840091145833334,0)" xlink:href="#aB"/></g><path fill="#a9afb8" d="M98-1322v-168h1126v168H757V0H567v-1322H98" id="aD"/><path fill="#a9afb8" d="M613 24c-304 0-509-231-509-576 0-350 205-580 509-580 305 0 511 230 511 580 0 345-206 576-511 576zm0-161c226 0 329-195 329-415 0-222-103-419-329-419-223 0-326 196-326 419 0 220 103 415 326 415" id="aE"/><path fill="#a9afb8" d="M158 0v-1118h175l1 205c55-151 181-225 313-225 147 0 245 90 285 228 53-141 190-228 352-228 194 0 352 125 352 384V0h-181v-749c0-161-105-225-225-225-151 0-243 103-243 244V0H807v-767c0-124-93-207-219-207-131 0-250 92-250 270V0H158" id="aF"/><path fill="#a9afb8" d="M471 26C259 26 90-98 90-318c0-256 228-303 435-329 202-27 287-16 287-108 0-139-79-219-234-219-161 0-248 86-283 164l-173-57c86-203 278-265 451-265 150 0 419 46 419 395V0H815v-152h-12C765-73 660 26 471 26zm31-159c199 0 310-134 310-271v-155c-30 35-226 55-295 64-131 17-246 59-246 186 0 116 97 176 231 176zm-23-1131l140-294h201l-194 294H479" id="aG"/><path fill="#a9afb8" d="M538 24C308 24 148-78 108-271l171-41c32 123 123 178 257 178 156 0 256-77 256-169 0-77-54-128-164-154l-186-44c-203-48-300-148-300-305 0-192 176-326 414-326 230 0 351 112 402 269l-163 42c-31-80-94-158-238-158-133 0-233 69-233 162 0 83 57 129 188 160l169 40c203 48 298 149 298 302 0 196-179 339-441 339" id="aH"/><g id="o"><use transform="matrix(0.006946072048611111,0,0,0.006946072048611111,0,0)" xlink:href="#aD"/><use transform="matrix(0.006946072048611111,0,0,0.006946072048611111,8.071335720486111,0)" xlink:href="#aE"/><use transform="matrix(0.006946072048611111,0,0,0.006946072048611111,16.601112196180555,0)" xlink:href="#aF"/><use transform="matrix(0.006946072048611111,0,0,0.006946072048611111,29.06236545138889,0)" xlink:href="#aG"/><use transform="matrix(0.006946072048611111,0,0,0.006946072048611111,37.050348307291664,0)" xlink:href="#aH"/></g><path fill="#a9afb8" d="M180 0v-1490h190v1322h690V0H180" id="aI"/><path fill="#a9afb8" d="M471 26C259 26 90-98 90-318c0-256 228-303 435-329 202-27 287-16 287-108 0-139-79-219-234-219-161 0-248 86-283 164l-173-57c86-203 278-265 451-265 150 0 419 46 419 395V0H815v-152h-12C765-73 660 26 471 26zm31-159c199 0 310-134 310-271v-155c-30 35-226 55-295 64-131 17-246 59-246 186 0 116 97 176 231 176" id="aJ"/><path fill="#a9afb8" d="M158 0v-1118h180V0H158zm91-1301c-68 0-125-53-125-119s57-119 125-119c69 0 126 53 126 119s-57 119-126 119" id="aK"/><path fill="#a9afb8" d="M126 0v-134l627-806v-11H146v-167h839v143L376-178v11h629V0H126" id="aL"/><g id="p"><use transform="matrix(0.006946072048611111,0,0,0.006946072048611111,0,0)" xlink:href="#aI"/><use transform="matrix(0.006946072048611111,0,0,0.006946072048611111,8.043551432291666,0)" xlink:href="#aE"/><use transform="matrix(0.006946072048611111,0,0,0.006946072048611111,16.71224934895833,0)" xlink:href="#aJ"/><use transform="matrix(0.006946072048611111,0,0,0.006946072048611111,24.70023220486111,0)" xlink:href="#aK"/><use transform="matrix(0.006946072048611111,0,0,0.006946072048611111,28.14548394097222,0)" xlink:href="#aL"/><use transform="matrix(0.006946072048611111,0,0,0.006946072048611111,36.001491427951386,0)" xlink:href="#aJ"/></g><path fill="#a9afb8" d="M180 0v-1490h510c348 0 508 194 508 460 0 198-88 351-276 417L1256 0h-220L726-579c-117 2-238 0-356 1V0H180zm190-747h312c235 0 327-108 327-283 0-177-92-293-329-293H370v576" id="aM"/><path fill="#a9afb8" d="M577 24c-279 0-473-224-473-580 0-354 195-576 474-576 218 0 287 134 324 193h14v-551h180V0H922v-173h-20C865-111 790 24 577 24zm27-161c203 0 314-172 314-421 0-247-108-413-314-413-212 0-317 181-317 413 0 235 108 421 317 421" id="aN"/><path fill="#a9afb8" d="M158 0v-1118h174v172h12c41-113 157-188 290-188 26 0 70 2 91 3v181c-11-2-60-10-108-10-161 0-279 109-279 260V0H158" id="aO"/><path fill="#a9afb8" d="M158 0v-1118h180V0H158zm12-1264l140-294h201l-194 294H170" id="aP"/><path fill="#a9afb8" d="M611 442c-248 0-391-105-460-228l146-94c47 65 117 165 314 165 178 0 307-82 307-266v-224h-17C863-141 792-18 576-18c-268 0-472-195-472-546 0-346 197-568 476-568 216 0 288 133 326 193h17v-179h175V29c0 289-215 413-487 413zm-5-620c203 0 314-146 314-390 0-237-108-403-314-403-213 0-319 180-319 403 0 230 109 390 319 390" id="aQ"/><path fill="#a9afb8" d="M537 14c-226 0-379-139-379-422v-710h180v695c0 172 97 275 253 275 160 0 281-109 281-300v-670h181V0H879v-209C806-46 684 14 537 14" id="aR"/><path fill="#a9afb8" d="M628 24c-324 0-524-230-524-574 0-343 198-582 503-582 237 0 487 146 487 559v75H286c9 234 145 362 343 362 132 0 231-58 273-172l174 48C1024-91 857 24 628 24zM287-650h624c-17-190-120-322-304-322-192 0-309 151-320 322" id="aS"/><g id="q"><use transform="matrix(0.006946072048611111,0,0,0.006946072048611111,0,0)" xlink:href="#aM"/><use transform="matrix(0.006946072048611111,0,0,0.006946072048611111,8.94654079861111,0)" xlink:href="#aE"/><use transform="matrix(0.006946072048611111,0,0,0.006946072048611111,17.476317274305554,0)" xlink:href="#aN"/><use transform="matrix(0.006946072048611111,0,0,0.006946072048611111,26.186691623263886,0)" xlink:href="#aO"/><use transform="matrix(0.006946072048611111,0,0,0.006946072048611111,31.76438747829861,0)" xlink:href="#aP"/><use transform="matrix(0.006946072048611111,0,0,0.006946072048611111,35.20963921440972,0)" xlink:href="#aQ"/><use transform="matrix(0.006946072048611111,0,0,0.006946072048611111,43.93390570746527,0)" xlink:href="#aR"/><use transform="matrix(0.006946072048611111,0,0,0.006946072048611111,52.345598958333326,0)" xlink:href="#aS"/><use transform="matrix(0.006946072048611111,0,0,0.006946072048611111,60.43082682291665,0)" xlink:href="#aL"/></g><path fill="#a9afb8" d="M419-1970V480H262v-2450h157" id="aT"/><use transform="matrix(0.006946072048611111,0,0,0.006946072048611111,0,0)" xlink:href="#aT" id="r"/><path fill="#a9afb8" d="M784 20c-382 0-662-292-662-764 0-473 280-766 662-766s660 293 660 766c0 472-278 764-660 764zm0-176c266 0 475-207 475-588 0-383-209-590-475-590-268 0-477 208-477 590 0 380 209 588 477 588" id="aU"/><path fill="#a9afb8" d="M613 24c-304 0-509-231-509-576 0-350 205-580 509-580 216 0 392 114 453 309l-173 49c-33-115-133-197-280-197-223 0-326 196-326 419 0 220 103 415 326 415 150 0 252-85 285-206l172 49C1010-95 832 24 613 24" id="aV"/><path fill="#a9afb8" d="M598-1118v154H368v674c0 100 37 144 132 144 23 0 62-6 92-12L629-6c-37 13-88 20-134 20-193 0-307-107-307-290v-688H20v-154h168v-266h180v266h230" id="aW"/><path fill="#a9afb8" d="M677 24c-213 0-288-135-325-197h-20V0H158v-1490h180v551h14c37-59 106-193 324-193 279 0 474 222 474 576 0 356-194 580-473 580zm-27-161c209 0 317-186 317-421 0-232-105-413-317-413-206 0-314 166-314 413 0 249 111 421 314 421" id="aX"/><g id="s"><use transform="matrix(0.006946072048611111,0,0,0.006946072048611111,0,0)" xlink:href="#aU"/><use transform="matrix(0.006946072048611111,0,0,0.006946072048611111,10.877548828125,0)" xlink:href="#aV"/><use transform="matrix(0.006946072048611111,0,0,0.006946072048611111,19.004453125,0)" xlink:href="#aW"/><use transform="matrix(0.006946072048611111,0,0,0.006946072048611111,23.519399956597223,0)" xlink:href="#aE"/><use transform="matrix(0.006946072048611111,0,0,0.006946072048611111,32.04917643229167,0)" xlink:href="#aX"/><use transform="matrix(0.006946072048611111,0,0,0.006946072048611111,40.75955078125,0)" xlink:href="#aS"/><use transform="matrix(0.006946072048611111,0,0,0.006946072048611111,49.05316080729166,0)" xlink:href="#aO"/></g><path fill="#a9afb8" d="M653-1490V0H466v-1314h-10L96-1047v-204l324-239h233" id="aY"/><path fill="#a9afb8" d="M120-303v-155l652-1032h231v1020h202v167h-202V0H821v-303H120zm702-167v-782h-12L323-482v12h499" id="aZ"/><path fill="#a9afb8" d="M128 359l88-567h206L266 359H128" id="ba"/><g id="t"><use transform="matrix(0.006946072048611111,0,0,0.006946072048611111,0,0)" xlink:href="#aY"/><use transform="matrix(0.006946072048611111,0,0,0.006946072048611111,5.786078016493056,0)" xlink:href="#aZ"/><use transform="matrix(0.006946072048611111,0,0,0.006946072048611111,14.496452365451388,0)" xlink:href="#ba"/></g><path fill="#a9afb8" d="M154 0v-137l495-537c165-179 249-281 249-418 0-156-121-253-280-253-170 0-278 110-278 278H158c0-264 200-443 465-443 266 0 455 183 455 416 0 161-73 288-336 568L416-179v12h687V0H154" id="bb"/><path fill="#a9afb8" d="M646 20c-332 0-524-278-524-764 0-483 194-766 524-766s524 283 524 766c0 485-191 764-524 764zm0-166c218 0 341-220 341-598 0-380-123-601-341-601s-341 222-341 601c0 378 123 598 341 598" id="bc"/><path fill="#a9afb8" d="M626 20c-262 0-458-168-468-396h184c12 133 134 229 284 229 180 0 311-137 311-326 0-192-136-335-323-335-92 0-196 33-255 78l-178-22 88-738h784v167H429l-51 435h8c61-51 160-87 263-87 273 0 474 211 474 499 0 286-210 496-497 496" id="bd"/><g id="u"><use transform="matrix(0.006946072048611111,0,0,0.006946072048611111,0,0)" xlink:href="#bb"/><use transform="matrix(0.006946072048611111,0,0,0.006946072048611111,8.675643988715278,0)" xlink:href="#bc"/><use transform="matrix(0.006946072048611111,0,0,0.006946072048611111,17.649969075520833,0)" xlink:href="#bb"/><use transform="matrix(0.006946072048611111,0,0,0.006946072048611111,26.32561306423611,0)" xlink:href="#bd"/></g><path d="M653-1490V0H466v-1314h-10L96-1047v-204l324-239h233" id="be"/><path d="M295 13c-75 0-135-60-135-135s60-135 135-135 135 60 135 135S370 13 295 13zm0-809c-75 0-135-60-135-135s60-135 135-135 135 60 135 135-60 135-135 135" id="bf"/><path d="M180 0v-1490h270l367 940c28 72 75 218 110 339 35-117 81-264 110-339l362-940h271V0h-187c2-448-5-837 7-1287-157 497-311 829-483 1287H842C666-458 514-784 354-1284c12 438 5 843 7 1284H180" id="bg"/><g id="v"><use transform="matrix(0.0087890625,0,0,0.0087890625,0,0)" xlink:href="#be"/><use transform="matrix(0.0087890625,0,0,0.0087890625,7.3212890625,0)" xlink:href="#bf"/><use transform="matrix(0.0087890625,0,0,0.0087890625,12.5068359375,0)" xlink:href="#bg"/></g><path fill="#fff" d="M535 24C259 24 94-144 94-427c0-392 272-715 610-715 216 0 356 119 356 305 0 244-237 344-790 350-18 199 49 349 276 352 142 0 260-66 317-173l167 47C947-85 756 24 535 24zM294-623c447-4 586-57 586-218 0-85-78-141-194-141-220 0-342 177-392 359" id="bh"/><g id="w"><use transform="matrix(0.008072916666666667,0,0,0.008072916666666667,0,0)" xlink:href="#P"/><use transform="matrix(0.008072916666666667,0,0,0.008072916666666667,12.069010416666668,0)" xlink:href="#R"/><use transform="matrix(0.008072916666666667,0,0,0.008072916666666667,18.026822916666667,0)" xlink:href="#bh"/><use transform="matrix(0.008072916666666667,0,0,0.008072916666666667,27.54479166666667,0)" xlink:href="#Q"/><use transform="matrix(0.008072916666666667,0,0,0.008072916666666667,37.692447916666666,0)" xlink:href="#R"/></g><path fill="#fff" d="M-4 418l255-1536h174l-30 179h9c47-68 143-193 355-193 246 0 401 170 401 447 0 348-211 709-568 709-219 0-274-140-300-202h-17l-99 596H-4zm572-555c267 0 411-296 411-543 0-170-78-291-250-291-269 0-405 284-405 542 0 177 81 292 244 292" id="bi"/><path fill="#fff" d="M691-1118l-25 154H437L325-290c-17 103 16 144 108 144 23 0 63-6 94-12L538-6c-36 12-87 20-136 20-196 0-290-109-260-290l114-688H88l25-154h169l44-266h180l-44 266h229" id="bj"/><path fill="#fff" d="M65 0l186-1118h175l-31 195c80-148 212-215 337-215 153 0 236 96 255 228 75-143 223-228 382-228 199 0 341 131 298 390L1543 0h-181l126-756c27-162-65-218-177-218-160 0-274 111-297 250L894 0H714l128-773c21-127-57-201-174-201-136 0-277 97-307 277L245 0H65" id="bk"/><g id="x"><use transform="matrix(0.008072916666666667,0,0,0.008072916666666667,0,0)" xlink:href="#bi"/><use transform="matrix(0.008072916666666667,0,0,0.008072916666666667,10.131510416666668,0)" xlink:href="#R"/><use transform="matrix(0.008072916666666667,0,0,0.008072916666666667,16.089322916666667,0)" xlink:href="#bh"/><use transform="matrix(0.008072916666666667,0,0,0.008072916666666667,25.60729166666667,0)" xlink:href="#U"/><use transform="matrix(0.008072916666666667,0,0,0.008072916666666667,34.32604166666667,0)" xlink:href="#bj"/><use transform="matrix(0.008072916666666667,0,0,0.008072916666666667,39.58958333333334,0)" xlink:href="#Q"/><use transform="matrix(0.008072916666666667,0,0,0.008072916666666667,49.737239583333334,0)" xlink:href="#bk"/><use transform="matrix(0.008072916666666667,0,0,0.008072916666666667,64.22005208333334,0)" xlink:href="#ac"/></g><path fill="#fff" d="M524-1490L277 0H87l247-1490h190" id="bl"/><path fill="#fff" d="M356-664L245 0H65l186-1118h173l-32 197c96-152 219-211 366-211 232 0 366 145 319 428L960 0H779l117-701c29-174-48-269-198-269-165 0-310 115-342 306" id="bm"/><path fill="#fff" d="M528 24C258 24 94-156 94-433c0-354 228-699 603-699 222 0 381 120 410 314l-176 39c-14-114-95-192-238-192-272 0-419 288-419 536 0 167 76 298 258 298 155 0 277-90 329-211l166 58C935-93 745 24 528 24" id="bn"/><g id="y"><use transform="matrix(0.008072916666666667,0,0,0.008072916666666667,0,0)" xlink:href="#bl"/><use transform="matrix(0.008072916666666667,0,0,0.008072916666666667,4.440104166666667,0)" xlink:href="#bm"/><use transform="matrix(0.008072916666666667,0,0,0.008072916666666667,14.216406250000002,0)" xlink:href="#V"/><use transform="matrix(0.008072916666666667,0,0,0.008072916666666667,18.228645833333335,0)" xlink:href="#bn"/><use transform="matrix(0.008072916666666667,0,0,0.008072916666666667,27.68203125,0)" xlink:href="#V"/><use transform="matrix(0.008072916666666667,0,0,0.008072916666666667,31.694270833333334,0)" xlink:href="#Q"/><use transform="matrix(0.008072916666666667,0,0,0.008072916666666667,41.84192708333333,0)" xlink:href="#R"/></g><path fill="#fff" d="M575 26C254 26 62-139 87-390h195c-13 168 129 246 305 246 202 0 370-106 400-265 38-202-254-238-427-293-212-68-349-179-316-387 40-252 276-421 566-421 289 0 487 168 458 396h-185c7-144-113-228-291-228-194 0-337 102-361 240-27 156 137 212 244 243l142 41c149 43 400 132 354 412-40 244-251 432-596 432" id="bo"/><g id="z"><use transform="matrix(0.008072916666666667,0,0,0.008072916666666667,0,0)" xlink:href="#bo"/><use transform="matrix(0.008072916666666667,0,0,0.008072916666666667,10.591666666666669,0)" xlink:href="#bh"/><use transform="matrix(0.008072916666666667,0,0,0.008072916666666667,20.10963541666667,0)" xlink:href="#U"/><use transform="matrix(0.008072916666666667,0,0,0.008072916666666667,28.82838541666667,0)" xlink:href="#V"/><use transform="matrix(0.008072916666666667,0,0,0.008072916666666667,32.840625,0)" xlink:href="#ac"/><use transform="matrix(0.008072916666666667,0,0,0.008072916666666667,42.76223958333334,0)" xlink:href="#bm"/></g><path fill="#fff" d="M87 0l247-1490h510c351 0 476 196 432 460-33 197-146 351-346 417L1163 0H943L728-579c-116 2-237 0-355 1L277 0H87zm314-747h311c238 0 346-110 375-283 31-185-52-293-281-293H496" id="bp"/><g id="A"><use transform="matrix(0.008072916666666667,0,0,0.008072916666666667,0,0)" xlink:href="#bp"/><use transform="matrix(0.008072916666666667,0,0,0.008072916666666667,10.397916666666667,0)" xlink:href="#bh"/><use transform="matrix(0.008072916666666667,0,0,0.008072916666666667,19.91588541666667,0)" xlink:href="#S"/><use transform="matrix(0.008072916666666667,0,0,0.008072916666666667,30.055468750000003,0)" xlink:href="#V"/><use transform="matrix(0.008072916666666667,0,0,0.008072916666666667,34.067708333333336,0)" xlink:href="#U"/><use transform="matrix(0.008072916666666667,0,0,0.008072916666666667,42.786458333333336,0)" xlink:href="#bj"/><use transform="matrix(0.008072916666666667,0,0,0.008072916666666667,48.21145833333334,0)" xlink:href="#R"/><use transform="matrix(0.008072916666666667,0,0,0.008072916666666667,54.16927083333334,0)" xlink:href="#Q"/><use transform="matrix(0.008072916666666667,0,0,0.008072916666666667,64.31692708333334,0)" xlink:href="#R"/><use transform="matrix(0.008072916666666667,0,0,0.008072916666666667,70.54921875000001,0)" xlink:href="#U"/><use transform="matrix(0.008072916666666667,0,0,0.008072916666666667,79.26796875000001,0)" xlink:href="#bh"/></g></defs></g></svg>